<svg xmlns="http://www.w3.org/2000/svg" width="19.966" height="19.969" viewBox="0 0 19.966 19.969">
  <path id="garage_1_" data-name="garage (1)" d="M13.31,12.15H6.655a1.664,1.664,0,0,0-1.664,1.664v6.151h9.983V13.814A1.664,1.664,0,0,0,13.31,12.15Zm-2.5,4.151H9.151a.832.832,0,1,1,0-1.664h1.664a.832.832,0,1,1,0,1.664Zm9.151-8.212v7.717a4.167,4.167,0,0,1-3.328,4.076V13.814a3.328,3.328,0,0,0-3.328-3.328H6.655a3.328,3.328,0,0,0-3.328,3.328v6.068A4.167,4.167,0,0,1,0,15.805V8.089A4.153,4.153,0,0,1,1.83,4.64L7.653.711a4.144,4.144,0,0,1,4.654,0L18.13,4.64a4.154,4.154,0,0,1,1.835,3.448Z" transform="translate(0 0.004)" fill="#74d1d8"/>
</svg>
