<svg xmlns="http://www.w3.org/2000/svg" width="20" height="20" viewBox="0 0 20 20">
  <path id="Path_2221" data-name="Path 2221" d="M6.984,18.773V15.716a1.458,1.458,0,0,1,1.5-1.413h3.025a1.546,1.546,0,0,1,1.06.414,1.374,1.374,0,0,1,.439,1v3.058a1.183,1.183,0,0,0,.375.867A1.331,1.331,0,0,0,14.3,20h2.064a3.744,3.744,0,0,0,2.572-1A3.327,3.327,0,0,0,20,16.578V7.867a2.426,2.426,0,0,0-.943-1.9L12.036.676A3.393,3.393,0,0,0,7.879.747L1.018,5.965A2.436,2.436,0,0,0,0,7.867v8.7A3.539,3.539,0,0,0,3.638,20H5.655a1.266,1.266,0,0,0,1.3-1.218Z" fill="#74d1d8"/>
</svg>
