<svg xmlns="http://www.w3.org/2000/svg" width="20.029" height="20.029" viewBox="0 0 20.029 20.029">
  <g id="Processes" transform="translate(-1509.924 -578.604)">
    <g id="fi-sr-refresh" transform="translate(1509.924 578.604)">
      <path id="Path_611" data-name="Path 611" d="M19.465,12a.819.819,0,0,0-.824.732A8.331,8.331,0,0,1,4.385,17.84a3.394,3.394,0,0,1-1.047-1.669A1.669,1.669,0,0,0,1.669,17.84v3.337a.834.834,0,1,0,1.669,0V19.143A9.992,9.992,0,0,0,20.3,12.918.84.84,0,0,0,19.465,12Z" transform="translate(-0.273 -1.986)" fill="#74d1d8"/>
      <path id="Path_612" data-name="Path 612" d="M17.795,0a.834.834,0,0,0-.834.834V2.868A9.992,9.992,0,0,0,0,9.093a.84.84,0,0,0,.834.918.819.819,0,0,0,.824-.732A8.331,8.331,0,0,1,15.914,4.171a4.368,4.368,0,0,1,1.047,1.669,1.669,1.669,0,0,0,1.669-1.669V.834A.834.834,0,0,0,17.795,0Z" transform="translate(0.004 0.004)" fill="#74d1d8"/>
    </g>
    <path id="fi-sr-settings" d="M1.4,8.986a1.5,1.5,0,0,0,2.047.549l.222-.128a4.482,4.482,0,0,0,1.422.821v.256a1.5,1.5,0,1,0,3,0v-.256a4.482,4.482,0,0,0,1.422-.822l.223.129a1.5,1.5,0,1,0,1.5-2.6l-.222-.128a4.543,4.543,0,0,0,0-1.642l.222-.128a1.5,1.5,0,1,0-1.5-2.6l-.222.128a4.482,4.482,0,0,0-1.423-.819V1.5a1.5,1.5,0,0,0-3,0v.256a4.482,4.482,0,0,0-1.422.822L3.45,2.446a1.5,1.5,0,1,0-1.5,2.6l.222.128a4.543,4.543,0,0,0,0,1.642l-.222.128A1.5,1.5,0,0,0,1.4,8.986ZM6.593,3.994a2,2,0,1,1-2,2,2,2,0,0,1,2-2Z" transform="translate(1513.345 582.628)" fill="#74d1d8"/>
  </g>
</svg>
