<svg xmlns="http://www.w3.org/2000/svg" width="18" height="20.006" viewBox="0 0 18 20.006">
  <path id="fi-sr-settings" d="M1.54,15a2.5,2.5,0,0,0,3.418.917l.371-.214A7.483,7.483,0,0,0,7.7,17.077V17.5a2.5,2.5,0,0,0,5,0v-.428a7.483,7.483,0,0,0,2.374-1.372l.373.215a2.5,2.5,0,1,0,2.5-4.335l-.37-.213a7.586,7.586,0,0,0,0-2.742l.37-.213a2.5,2.5,0,1,0-2.5-4.335l-.371.214A7.483,7.483,0,0,0,12.7,2.928V2.5a2.5,2.5,0,1,0-5,0v.428A7.483,7.483,0,0,0,5.328,4.3l-.373-.216a2.5,2.5,0,1,0-2.5,4.335l.37.213a7.585,7.585,0,0,0,0,2.742l-.37.213A2.506,2.506,0,0,0,1.54,15ZM10.2,6.669A3.334,3.334,0,1,1,6.869,10,3.334,3.334,0,0,1,10.2,6.669Z" transform="translate(-1.203)" fill="#74d1d8"/>
</svg>
