<svg id="Modules" xmlns="http://www.w3.org/2000/svg" width="20.016" height="18.467" viewBox="0 0 20.016 18.467">
  <path id="Path_481" data-name="Path 481" d="M17.514,17H8.34v1.672a.834.834,0,1,1-1.668,0V17H5v1.672a.834.834,0,1,1-1.668,0V17H2.5a2.508,2.508,0,0,0,0,5.016H17.514a2.508,2.508,0,0,0,0-5.016Z" transform="translate(0 -3.549)" fill="#74d1d8"/>
  <path id="Path_482" data-name="Path 482" d="M17.514,9H8.34v1.672a.834.834,0,1,1-1.668,0V9H5v1.672a.834.834,0,1,1-1.668,0V9H2.5a2.508,2.508,0,0,0,0,5.016H17.514a2.508,2.508,0,0,0,0-5.016Z" transform="translate(0 -2.274)" fill="#74d1d8"/>
  <path id="Path_483" data-name="Path 483" d="M17.514,1H8.34V2.672a.834.834,0,1,1-1.668,0V1H5V2.672a.834.834,0,1,1-1.668,0V1H2.5a2.508,2.508,0,0,0,0,5.016H17.514a2.508,2.508,0,0,0,0-5.016Z" transform="translate(0 -1)" fill="#74d1d8"/>
</svg>
